PathFileType	4	(X/Y/Z)	KinectSkeleton.trc																																																	
DataRate	CameraRate	NumFrames	NumMarkers	Units	OrigDataRate	OrigDataStartFrame	OrigNumFrames																																													
60	60	15	17	mm	60	434	300																																													
Frame#	Time	Neck			ShoulderMid			R.Shoulder			L.Shoulder			R.Elbow			L.Elbow			R.Wrist			L.Wrist			HipCenter			R.Hip			L.Hip			R.Knee			L.Knee			R.Ankle			L.Ankle			R.Foot			L.Foot		
		X1	Y1	Z1	X2	Y2	Z2	X3	Y3	Z3	X4	Y4	Z4	X5	Y5	Z5	X6	Y6	Z6	X7	Y7	Z7	X8	Y8	Z8	X9	Y9	Z9	X10	Y10	Z10	X11	Y11	Z11	X12	Y12	Z12	X13	Y13	Z13	X14	Y14	Z14	X15	Y15	Z15	X16	Y16	Z16	X17	Y17	Z17
																																																				
434	21.197	-1047.829	1510.199	625.163	-1047.829	1510.199	625.163	-1054.291	1453.395	798.858	-1070.677	1443.271	444.044	-1093.383	1166.556	864.709	-1144.105	1166.952	387.874	-982.21	945.264	864.917	-1011.492	961.488	389.962	-1061.684	943.93	635.907	-1056.306	944.815	722.431	-1067.648	942.949	539.956	-968.611	532.8	741.069	-1055.05	521.031	537.905	-1030.525	129.881	742.49	-1110.71	121.624	548.58	-908.575	-2.503	767.617	-969.723	-14.531	524.038
435	21.243	-1047.828	1510.205	625.141	-1047.828	1510.205	625.141	-1054.29	1453.408	798.841	-1070.674	1443.263	444.023	-1093.374	1166.566	864.704	-1144.101	1166.935	387.879	-982.193	945.275	864.92	-1011.486	961.469	389.986	-1061.684	943.929	635.905	-1056.306	944.816	722.43	-1067.648	942.945	539.953	-968.605	532.799	741.118	-1055.094	521.02	537.933	-1030.398	129.855	742.576	-1111.002	121.645	548.683	-908.411	-2.49	767.74	-970.128	-14.635	524.161
436	21.297	-1047.579	1510.295	620.14	-1047.579	1510.295	620.14	-1053.858	1454.975	794.045	-1070.44	1441.883	439.842	-1097.956	1169.551	861.022	-1142.131	1164.458	389.251	-991.902	946.155	863.602	-1008.098	960.363	393.795	-1060.846	944.868	634.913	-1055.623	946.333	721.318	-1066.639	943.243	539.093	-974.774	533.813	745.672	-996.919	527.558	533.616	-1010.771	128.643	761.842	-1066.691	132.131	566.131	-877.566	8.922	791.177	-934.826	-12.288	540.351
437	21.354	-1047.826	1511.245	620.31	-1047.826	1511.245	620.31	-1059.446	1457.191	794.244	-1066.184	1440.302	439.689	-1101.868	1169.893	856.12	-1142.559	1163.806	388.296	-998.822	944.788	863.715	-1007.754	959.826	394.911	-1062.048	944.881	633.919	-1057.252	946.203	720.485	-1067.368	943.414	537.921	-1008.346	527.709	738.354	-1075.521	521.318	538.68	-1058.361	123.253	750.358	-1134.27	122.589	557.404	-931.257	-3.536	778.774	-1000.562	-19.179	524.94
438	21.398	-1050.143	1513.542	617.345	-1050.143	1513.542	617.345	-1060.668	1459.422	792.217	-1066.429	1443.654	435.397	-1103.771	1171.002	854.809	-1144.033	1165.762	385.97	-1012.599	939.731	864.911	-1010.558	959.604	392.743	-1065.846	944.599	634.3	-1059.472	946.705	721.138	-1072.914	942.264	537.999	-987.821	529.75	742.677	-1059.086	518.431	534.782	-1028.265	122.552	759.432	-1128.863	120.052	560.834	-899.698	-4.678	784.313	-1004.474	-32.138	533.51
439	21.443	-1051.451	1514.771	609.302	-1051.451	1514.771	609.302	-1070.611	1465.758	784.919	-1062.951	1445.281	427.336	-1106.789	1176.395	849.106	-1147.573	1168.394	382.03	-1026.364	941.176	864.684	-1016.845	960.354	393.292	-1071.51	945.697	633.384	-1067.597	948.516	720.445	-1075.85	942.572	536.837	-977.432	534.585	739.954	-1050.523	518.804	532.805	-1023.227	127.359	753.027	-1132.446	122.311	559.286	-896.563	-1.668	779.826	-1013.927	-35.773	538.514
440	21.489	-1054.159	1515.176	605.579	-1054.159	1515.176	605.579	-1075.297	1467.272	781.147	-1071.202	1449.514	423.056	-1107.92	1177.155	845.135	-1146.099	1169.346	379.058	-1040.112	938.08	865.125	-1017.688	959.496	388.198	-1075.732	945.804	631.872	-1072.671	949.295	719.024	-1079.127	941.931	535.223	-993.118	532.688	736.174	-1065.218	517.308	526.595	-1070.656	129.864	747.774	-1146.587	119.954	546.968	-961.412	-15.353	768.998	-1037.909	-44.638	521.645
441	21.534	-1054.553	1516.09	597.389	-1054.553	1516.09	597.389	-1075.089	1468.719	774.353	-1075.641	1448.104	415.106	-1110.969	1179.019	844.554	-1148.897	1165.4	375.901	-1048.423	937.817	869.678	-1017.446	956.148	385.766	-1084.498	944.951	630.451	-1081.375	949.544	717.948	-1087.961	939.856	533.42	-1002.881	530.551	728.548	-1069.859	513.4	528.067	-1076.532	125.046	738.195	-1150.336	113.913	547.182	-964.591	-19.523	756.82	-1036.55	-48.396	522.447
442	21.58	-1057.856	1515.213	582.891	-1057.856	1515.213	582.891	-1080.123	1471.856	759.491	-1082.743	1447.5	402.308	-1121.635	1186.304	836.574	-1146.823	1163.174	371.073	-1047.779	949.427	859.032	-1022.314	951.457	385.231	-1100.988	949.042	630.448	-1102.035	956.895	717.304	-1099.828	940.333	534.128	-1010.732	543.335	741.216	-1050.526	518.556	533.174	-1078.824	139.254	757.543	-1156.422	127.133	549.77	-970.436	-6.147	780.726	-1057.949	-45.392	544.586
443	21.625	-1064.29	1517.451	575.597	-1064.29	1517.451	575.597	-1087.515	1475.586	754.297	-1081.733	1445.281	394.036	-1131.547	1187.917	832.262	-1150.287	1159.288	363.383	-1046.935	952.222	853.42	-1024.916	946.016	383.057	-1112.854	946.995	629.237	-1112.742	955.3	716.822	-1112.978	937.785	532.107	-1035.984	535.531	748.441	-1058.184	512.99	525.783	-1079.842	124.572	766.512	-1144.809	113.693	551.278	-957.171	-8.231	802.967	-1034.659	-52.948	534.561
444	21.673	-1065.546	1519.848	561.901	-1065.546	1519.848	561.901	-1095.6	1482.908	742.351	-1078.476	1442.177	380.619	-1155.127	1196.47	823.236	-1155.501	1155.838	351.988	-1082.56	954.837	844.556	-1034.709	938.732	380.07	-1132.589	947.979	629.785	-1129.927	958.067	717.806	-1135.541	936.791	532.175	-1047.158	535.488	738.344	-1068.463	510.473	532.229	-1123.874	125.922	747.009	-1174.81	114.377	575.872	-1003.205	-11.313	780.619	-1067.143	-55.516	557.73
445	21.723	-1070.382	1515.835	555.775	-1070.382	1515.835	555.775	-1095.762	1483.359	735.794	-1087.972	1438.623	376.258	-1159.685	1202.307	823.924	-1142.418	1149.155	348.957	-1097.838	959.486	844.491	-1035.63	927.807	384.179	-1151.072	951.365	633.792	-1156.1	964.846	720.622	-1145.495	936.414	537.501	-1093.818	541.842	741.437	-1070.333	514.589	530.13	-1147.684	131.895	759.214	-1160.111	116.071	559.283	-1027.728	-5.37	787.671	-1051.237	-51.91	547.333
446	21.799	-1083.525	1518.358	550.723	-1083.525	1518.358	550.723	-1113.687	1487.502	731.751	-1096.36	1439.842	370.776	-1176.632	1205.052	821.485	-1150.516	1148.593	345.156	-1107.468	962.876	842.389	-1050.892	923.279	385.054	-1171.222	953.124	636.763	-1175.919	967.624	723.912	-1166.013	937.045	540.117	-1067.575	552.624	758.475	-1072.301	516.637	534.345	-1157.433	146.555	748.634	-1162.283	115.769	560.55	-1040.967	7.86	788.583	-1036.982	-40.522	538.044
447	21.859	-1108.418	1514.245	548.956	-1108.418	1514.245	548.956	-1130.573	1480.598	729.577	-1120.585	1430.026	371.877	-1200.715	1203.341	823.004	-1160.562	1138.381	348.751	-1124.513	964.918	841.226	-1074.092	910.005	391.029	-1196.979	953.567	638.417	-1204.273	969.506	724.507	-1188.889	935.892	542.945	-1108.918	554.273	757.396	-1074.433	523.868	531.882	-1187.672	148.979	771.49	-1155.241	123.868	556.361	-1069.627	14.982	816.544	-1023.616	-25.671	536.778
448	21.906	-1143.714	1516.962	550.086	-1143.714	1516.962	550.086	-1159.353	1486.372	736.032	-1152.012	1424.458	371.93	-1234.897	1201.129	822.268	-1194.112	1126.47	350.449	-1134.228	966.169	842.734	-1092.59	899.325	397.606	-1224.297	943.191	643.397	-1236.469	958.783	730.962	-1210.797	925.9	546.291	-1262.239	526.068	783.212	-1120.193	498.679	528.407	-1463.193	155.22	766.745	-1251.289	103.357	560.432	-1403.187	-17.099	812.78	-1145.068	-71.434	559.423
